<?xml version="1.0" encoding="utf-8"?>
<!-- Generator: Adobe Illustrator 24.3.0, SVG Export Plug-In . SVG Version: 6.00 Build 0)  -->
<svg version="1.1" xmlns="http://www.w3.org/2000/svg" xmlns:xlink="http://www.w3.org/1999/xlink" x="0px" y="0px"
	 viewBox="0 0 1920 1080" style="enable-background:new 0 0 1920 1080;" xml:space="preserve">
<style type="text/css">
	.st0{fill:#9B9B9B;}
	.st1{fill:none;stroke:#FFFFFF;stroke-width:0.5;stroke-miterlimit:10;}
</style>
<g id="Layer_2">
	<rect x="161.56" y="3.64" class="st0" width="1742.27" height="1071.03"/>
</g>
<g id="Layer_1">
	<path class="st1" d="M1205.04,24.3c-17.82-1.46-48.32,8.93-76.98,47.24c-23.25,31.05-32.75,58.34-35.87,100.6
		c0.42,29.55-2.79,53.23-7,85.73c-5.02,29.19-8.4,48.86-19.25,73.48c-19.66,7.37-30.84,11.27-47.25,20.16
		c-14.89,21.78-23.04,43.73-28.12,78.2c-9.8,49.73-14.61,90.63-22.34,148.7c-2.81,3.71-4.65,6.07-4.62,10.79
		c0.84,5.89,0.88,9.74,2.7,15.99c-5.17,6.87-7.25,11-6.93,14.45c-10.92,7.54-11.36,15.34-6.16,26.77
		c-6.24,10.81-5.8,17.15-2.31,26.39c-7.79,29.35-3.84,40.2,18.11,49.12c0,0,5.01,1.73,9.25,1.54c8.08,12.86,13.85,19.15,27.35,26.39
		l4.82,82.44c-23.88-7.98-41.67-12.83-68.38-20.22c-42.97-10.07-65.01-7.31-94.57,11.36c-13.92,12.36-20.33,20.74-25.42,37.37
		c-0.45,15.15,0.04,24.12,4.04,38.14c7.93,25.85,16.71,37.36,35.25,49.31c3.1,7.36,7.14,10.92,14.83,11.94
		c3.87,8.9,8.25,12.51,17.53,11.36c30.1,18.84,53.51,30.11,83.98,37.56c47.3,8.41,75.4,11.41,123.08,16.95
		c30.42,6.62,52.52,11.55,79.16,14.45c0,0,0,2.31,1.54,2.12c6.8,2.09,12.43,4.09,19.26,2.89l29.08,6.74
		c5.44-2.63,9.37-4.55,13.29-10.59c34.92,5.75,61.02,9.73,91.3,10.98c36.01-0.27,61.87-1.59,92.84-3.85
		c21.29-3.05,36.86-5.08,54.51-4.04c12.49,2.96,19.57,5.83,30.05,9.53c10.23,3.1,16.77,3.9,27.16,4.04l3.47-0.87
		c0,0,4.62,0.58,8.52-0.14c0.02-0.62,0.88-1.16,0.72-3.03c0,0,3.03-0.87,4.04-2.89c3.52-4.55,3.2-8.34-0.58-14.3l-4.48-2.17
		c2.98-6.37,4.51-10.52,3.32-16.32c-10.9-15.37-19.77-20.07-35.54-20.22c-8.31-7.85-13.37-12.42-22.25-18.64
		c14.75-9.39,23.7-15.43,37.27-26c26.2-11.67,42.9-20.76,65.15-38.57c7.28-2.81,10.99-5.59,13.29-14.01c0,0,5.34-0.72,7.51-5.49
		c13.13-6.72,18.58-10.29,18.35-13.87c13.54-18.05,19.97-33.76,24.85-71.8c0.36-11.3-0.72-18.25-6.36-28.46
		c-10.35-14.05-17.36-21.17-31.64-32.21c-22.44-9.63-38.72-11.37-68.62-3.9c-32.94,3.16-52.72,12.57-80.32,32.36
		c-20.22,17.69-33.19,28.12-56.34,43.63l0.58-43.05c13.49-22.05,24.06-37.03,32.65-58.36c6.87-6.7,6.96-12.44,9.53-21.67
		c13.31-16.83,12.13-27.26,2.31-45.36c2.16-7.9,3.82-12.54,2.6-20.22c-1.22-4.03-0.37-6.13,1.3-9.82c2.32-5.6,1.33-8.91-1.88-14.3
		c4.54-6.52,4.52-10.74,3.03-17.62c-0.17-5.02-2.12-7.44-5.34-11.27c-2.17-0.87-4.91-1.01-4.91-1.01c0.51-4.34,0.7-7.14-0.14-11.12
		c5.28-2.36,7.07-5.14,9.39-11.27c0.73-3.79-0.47-5.65-2.02-8.96c-2.31-3.9-2.87-6.4-1.88-11.12c3.01-8.48,3.32-12.34-1.59-16.32
		l-5.92-0.72c-0.84-24.07-0.8-38.55,0.29-62.12c-0.38-19.91-1.95-31.61-4.77-51.86c-1.79-15.29-4.15-24.96-8.67-40.01
		c-5.67-11.24-9.57-16.65-19.94-22.39c-10.03-6-18.03-9.82-30.19-14.88c-6.58-2.54-10.53-3.38-17.33-4.04
		c-13.15,0.01-22.29-1.25-36.26-3.9c-5.93-1.75-10.05-3.4-16.18-6.5l-2.31,1.73c-26.22-10.49-36.65-22.31-43.48-44.93
		c5.39-9.84,8.82-16.5,11.41-26.15c12.35-19.04,18.91-30.06,24.27-50.7c5.68-20.58,7.19-32.64,5.2-54.17
		c-3.28-26.97-8.9-42.12-22.1-64.43c-11.4-17.77-21.12-27.24-39-39.73c-14.64-6.63-24.06-8.96-40.74-11.56
		c-2.78-0.86-5.19-0.12-8.81,1.01L1205.04,24.3z"/>
	<path class="st1" d="M1133.69,443.77c-2.89,38.57-10.88,58.2-28.7,85.9c-12.77,16.02-23.29,25.74-40.26,38.14
		c34.78-33.39,46.95-55.42,56.44-97.65c-9.13,27.74-16.52,45.21-29.08,62.79c10.11-19.02,16.33-32.75,18.3-51.23
		c-7.77,23.91-12.83,37.67-24.46,57.98c8.62-19.95,13.57-33.68,13.87-50.46c-5.39,28.38-15.6,45.99-32.94,69.34
		c11.02-22.03,27.38-60.1,24.46-63.56c-5.51,18.33-10.36,27.87-18.68,44.88c6.69-15.89,10.82-26.39,10.79-40.06
		c-8.53,19.4-13.19,33.25-17.14,53.74c1.81-18.84,4.66-34.51,11.36-50.08c-16.76,25.81-18.3,79.36-18.3,79.36
		c-0.91-26.21,2.2-47.6,8.67-69.53c-9.84,25.28-12.73,50.01-12.71,82.05c-1.53-24.27-1.11-46.5,2.89-67.08
		c-9.27,27.51-9.74,68.39-6.93,108.92c-5.28-34.7-4.48-62.1,1.88-105.89"/>
	<path class="st1" d="M1136.19,439.72c0.58,34.53-0.52,54.88-11.27,88.41c8.27-20.73,14.15-37.86,15.6-58.65
		c-1.11,21.48-2.46,38.14-8.38,53.16c8.99-17.93,11.82-40.85,13-68.76c0.1,24.83-0.44,46.81-5.2,69.05
		c3.02-16.24,7.48-26.22,11.56-38.71"/>
	<path class="st1" d="M1151.21,484.79c0.72,23.72-1.41,38.21-11.56,54.03c6.75-7.57,11.54-14.19,14.45-26
		c-3.51,13.59-8.27,27.72-13.87,32.36c8.59-9.96,16.98-22.08,16.47-29.47c-3.08,11.45-5.07,23.72-9.53,26.87
		c9.67-17.26,16.47-31.36,17.33-48.83l-3.76,41.6c5.07-29.54,8.46-52.6,5.49-80.32c5.35,17.35,8.13,27.92,7.8,47.38
		c1.73-12.26,2.64-20.47,0.58-32.36c4.2,23.07,5.95,39.82,3.18,60.96c4.22-27.42,6.41-43.19,4.91-70.21
		c1.38,26.4,3.7,55.09,0.29,67.61c4.29-27.03,7.52-42.45,6.07-70.21c-1.97-11.93-2.23-18.95-1.16-28.6
		c2.57,10.77,4.89,18.99,3.76,29.47c3.62-57.26,3.28-90.93-6.36-142.72l-0.1,0.01"/>
	<path class="st1" d="M1066.08,331.86c-19.68,42.05-26.27,88.09-20.03,179.13c-2.27-77.07,2.91-125.9,21.96-173.35
		c-12.97,47.99-19.45,91.42-18.88,161.41c2.87-66.26,8.22-110.08,21.19-153.32c-8.75,48.48-14.15,86.28-15.02,144.84
		c4.13-62.29,11.96-102.75,26.2-150.24c-6.79,30.73-11.41,52.05-15.41,87.06c8.35-52.57,17.03-77.52,33.13-109.79"/>
	<path class="st1" d="M1382.35,472.47"/>
	<path class="st1" d="M1190.78,351.72c70.9-3.75,103.85-11.67,131.08-36.42"/>
	<path class="st1" d="M1182.56,284.11c7.35,10.25,13.4,17.79,22.58,24.64c8.66,5.93,14.12,6.98,23.5,7.32
		c8.52-0.96,13.65-2.75,19.26-8.86c13.58-14.53,19.65-21.33,30.14-36.89"/>
	<path class="st1" d="M1089.96,335.33c-5.32,19.74-8.07,31.27-6.55,50.46c2.83,32.04-0.77,48.96-15.02,75.5
		c-26.27,43.45-33.84,88.98-35.06,146c7.7-56.65,18.38-84.37,47-115.18c28.54-21.98,46.15-36.38,68.76-61.06
		c21.72-32.02,29.75-54.22,34.28-91.88c2.22-21.48,2.97-33.56-0.19-52.39c-4.18-17.75-6.16-29.99-7.51-47.38
		c0.02-20.53,0.04-40.66-2.7-79.93c-0.13-10.78,0.57-17.68,2.89-26.97c5.68-9.63,10.76-12.59,20.03-16.56
		c2.68-1.54,3.99-4.11,4.43-11.22c-0.13-4.77-0.11-9.41,1.01-15.75c0.63-5.13,0.86-8.53,0.14-14.59c-1.09-4.77-0.89-7.7,0.14-12.71
		c1.4-4.55,1.48-9.58,1.73-16.61c1.1,9.14,1.95,16.74,1.44,23.4c-1.02,4.95-0.1,7.6-0.14,11.7c0.32,4.67,0.5,7.38-0.14,10.98
		c-0.57,5.39-0.05,9,0.43,12.86c0.17,5.02,1.11,7.69,4.62,9.82c19.73,5.59,32.69,8.67,47.38,23.69c0,0,15.02,19.65,19.65,35.25
		c11.56,15.07,13.22,25.08,17.33,41.03c-0.19,5.59-0.24,6.81-0.19,11.17c0,0,0,4.82-2.12,7.7c-1.74,2.03-1.41,4.31-1.93,10.98"/>
	<path class="st1" d="M1156.61,132.7c-12.61,55.89-15.5,88.24-19.26,137.91c-0.23,48.51,3.07,74.62-8.47,116.34
		c-10.59,31.83-13.29,50.92-32.36,76.27l-43.92,67.03"/>
	<path class="st1" d="M1165.85,154.27c-3.64,48-1.04,81.04,0.77,117.88c3.07,39.06,5.13,60.22,0,94.76
		c-9.26,28.95-12.96,45.23-31.59,66.26c-22.17,20-37.16,35.96-59.32,63.95"/>
	<path class="st1" d="M1188.97,54.12c-46.24,33.84-67.32,67.05-83.98,134.83c-7.49,54.57-9.45,88.28-26.97,137.14"/>
	<path class="st1" d="M1191.28,75.69c-35.43,30.29-54.74,58.55-70.11,112.48c-7.46,41.47-13.97,72.72-13.1,120.96
		c-2.08,49.15-3.35,79.4-13.1,123.27c-9.32,35.05-22.92,49.95-39.29,78.59"/>
	<path class="st1" d="M1222.1,100.34c47.36,15.84,69.4,53.7,80.9,122.5"/>
	<path class="st1" d="M1222.87,62.59c51.09,29.53,80.06,65.32,87.83,140.99"/>
	<path class="st1" d="M1225.95,38.71c45.83,28.98,72.28,62.11,91.68,137.14"/>
	<path class="st1" d="M1192.44,368.39c67.49-1.11,102.57-10.63,146-48.95"/>
	<path class="st1" d="M1422.22,415.74c-10.68,33.06-17.08,51.72-33.23,79.74c-4.56,8.89-8.53,17.41-11.62,27.52"/>
	<path class="st1" d="M1376.93,530.62c25.14-11.15,44.68-13.72,80.24-11.44"/>
	<path class="st1" d="M1375.87,555.63c15.81-15.34,29.51-21.85,58.48-27.78"/>
	<path class="st1" d="M1376.26,545.27c10.76-9.77,19.97-13.79,35.46-17.62"/>
	<path class="st1" d="M1457.32,560.78c0.81,2.54,0.95,4.07,1.59,6.5L1457.32,560.78z"/>
	<path class="st1" d="M1422.94,557.31c13.61-2.59,23.26-2.15,34.38,3.76"/>
	<path class="st1" d="M1422.94,553.85c16.08-3.56,27.39-3.6,39.29,2.17c0.9,3.39,0.16,5.75-3.76,8.81"/>
	<path class="st1" d="M1462.09,555.87c0,0,2.74,1.59,4.62,4.04"/>
	<path class="st1" d="M1375.13,578.22c19.67-7.95,33.12-11.55,52.58-13.25"/>
	<path class="st1" d="M1375.44,568.75c11.2-1.91,19.02-2.67,31.33-2.48"/>
	<path class="st1" d="M1383.41,466.21c0.89-7.11,2.16-12.34,4.43-18.25"/>
	<path class="st1" d="M1459.2,578.55c-38.04-3.59-59.38-0.56-84.43,10"/>
	<path class="st1" d="M1374.85,598.86c10.49-6.82,21.27-10.22,45.21-12.37"/>
	<path class="st1" d="M1466.42,608.52c-21.6-19.51-44.47-19.78-88.55-5.27"/>
	<path class="st1" d="M1375.52,622.79c4.72-2.56,7.11-5.92,8.56-11.81"/>
	<path class="st1" d="M1378.74,620.59c0.41,3.52,1.45,5.93,3.32,8.38c0.87,2.46-0.14,5.2-0.14,5.2c-1.88,1.73-2.02,4.19-2.02,4.19
		c-1.98,0.89-3.17,5.23-3.61,9.11"/>
	<path class="st1" d="M1376.16,647.47l-1.51-55.58c1.76-46.72,1.61-78.13,8.79-125.67c-8.86-19.69-17.76-33.38-34.6-53.07
		c-18.49-21.37-30.96-40.24-42.52-69.75"/>
	<path class="st1" d="M1382.64,645.87c19.43-19.86,35.92-21.21,70.21-3.61c4.57,2.6,6.97,5.49,11.7,10.55
		c-2.46-4.73-3.05-8.01-5.63-13.15c-3.22-6.26-5.62-10.02-11.41-14.88c-19.44-9.36-36.32-13.25-63.78-13.8"/>
	<path class="st1" d="M1416.81,651.2c17.29-4.68,27.15,0.19,42.39,14.45c5.88,11.97,5.56,19.9,2.89,32.65"/>
	<path class="st1" d="M1418.17,669.99c13.87,0.04,22.64,2.84,32.65,11.56c6.06,13.27,6.21,23.82,1.73,38.38"/>
	<path class="st1" d="M1003.37,695.89c-8.26,9.71-11.65,16.2-12.79,27.74c-0.24,12.86,3.82,18.65,15.02,26l-2.89-69.53
		c-1.53-17.55,2.03-24.16,17.33-23.69l37.02-0.93"/>
	<line class="st1" x1="1058.21" y1="655.45" x2="1066.97" y2="655.23"/>
	<path class="st1" d="M1069.56,655.17l333.98-8.39c12.71-0.19,15.02,3.68,15.22,14.64l1.16,117.49"/>
	<path class="st1" d="M978.23,723.37c-2.98-4.91-26.87-45.98,21.6-64.45c3.35-0.66,6.56-0.92,9.39-0.84"/>
	<path class="st1" d="M967.61,722.72c-8.47-14.81-10.24-24.83-6.65-41.32c2.31-6.45,11.18-34.2,42.18-31.78
		c6.74,1.33,10.83,2.74,16.73,6.78"/>
	<path class="st1" d="M950.85,672.59c15.75-45.58,40.42-42.02,60.38-35.1c12.33,6.04,20.47,10.36,27.67,18.45"/>
	<path class="st1" d="M953.02,646.01c24.88-38.57,48.43-25.25,61.97-17.33c15.23,8.04,23.33,16.06,30.81,27.09"/>
	<path class="st1" d="M959.09,619.43c18.76-14.25,35.59-14.86,60.53-7.37l22.54,8.52c4.86,1.58,6.43,5.61,6.79,14.88
		c1.67,7.7,0.74,11.98-4.48,17.77"/>
	<path class="st1" d="M1049.03,635.99c-12.94-8.23-21.15-11.64-35.63-17"/>
	<path class="st1" d="M1085.34,548.74c0.42,20.48,1.71,32.01,6.16,50.85c-4.63-14.57-7.52-26.28-8.62-38.23
		c-0.24,13.09,0.28,23.05,4.04,33.51c-4.06-10.73-5.68-18.62-7.08-28.89c1.8,16.14,4.11,29.89,8.67,40.88
		c-4.73-11.51-7.38-19.85-10.69-30.91c2.31,15.88,5.3,26.98,9.68,39.73c-6.78-14.27-9.48-23.02-13.43-39
		c3.5,17.85,7.42,32.65,12.13,44.35c-7.39-14.07-11.04-24.32-14.16-38.43c2.41,16.66,5.61,28.17,14.45,44.06
		c0,0-7.22-9.39-10.55-16.76c1.95,8.03,3.17,13.13,7.08,21.24c-7.19-14.81-11.61-26.33-14.16-42.18c1.05,21.1,3.53,33.01,8.09,54.03
		c-6.3-17.04-9.18-30.03-11.85-48.39c-0.54,30.19,1.77,48.91,7.9,78.59c-9.56-26.35-14.74-47.73-15.79-72.42
		c-2.54,27.59-0.41,42.74,2.7,69.34c0,0-10.43-50.61-10.04-81.43"/>
	<path class="st1" d="M1076.53,616.54c-0.16,11.85,0.19,24.07,0.96,38.43"/>
	<path class="st1" d="M1010.42,831.98l2.89,52.87c1.51,12.42,5.66,15.75,18.3,15.41l368.08-6.93c13.06-0.55,17.25-5.07,17.91-17.91
		l1.73-54.39"/>
	<path class="st1" d="M1013.4,846.23c-16.67-12.72-30.31-18.62-53.45-27.45c-11.68-4.05-18.37-4.76-29.9-5.92
		c-5.74,1.11-6.47,3.98-5.63,10.26c0.34,5.21,0.56,8.4,2.17,12.86c1.36,4.23,1.44,7.58,1.16,12.13c0.6,4.73,3.19,5.53,9.82,5.78
		c4.77,0.33,7.1,2.49,10.26,9.68c2.06,2.39,6.66,3.89,17.77,8.52l45.65,21.81l7.51,3.9"/>
	<path class="st1" d="M1023.71,899.29c66.82,21.23,106.75,37.45,171.81,68.95l23.5,11.56"/>
	<path class="st1" d="M1101.42,898.94c11.74,8.82,20.91,15.5,35.15,22.31c22,9.63,35.92,16.61,58.94,23.11l38.14,11.56"/>
	<path class="st1" d="M1179.64,1040.45c4.27-7.94,8.39-15.26,10.87-18.85c8.31-13.54,13.23-21.73,23.88-34.67
		c10.27-14.97,16.31-26.78,21.96-38.33c0,0,7.5,4.25,13.11,8.32"/>
	<path class="st1" d="M1276.64,978.06c-2.74,6.17-5.14,10.76-9.28,17.15c-7.55,6.39-9.18,9.56-9.25,11.94
		c1.08,4.44,0.83,6.95-1.16,10.98c-6.93,6.55-12.13,18.88-12.13,18.88l-1.73,4.43"/>
	<path class="st1" d="M1284.12,982.12c-4.76-3.1-10.34-5.99-13.88-8.79c-6.34-0.78-10.51-3-15.4-8.16
		c-5.01-3.85-6.74-12.9-6.74-12.9c-1.83-7.38-2.35-13.5-3.85-22.15c0.74-17.19,17.22-14.51,17.53-14.45
		c5.65-2.45,8.35-5.51,12.52-12.13c5.92-3.98,9.11-5.84,13.87-6.93c4.46,0.04,9.47,1.35,13.48,3.47"/>
	<path class="st1" d="M1265.7,913.55c-0.97,9.6,0.06,16.93,1.85,27.92c1.89,10.08,3.84,16.92,8.67,25.81c0,0,4.24,9.63,8.28,15.22
		c6.91,1.67,15.37,0.84,25.43-0.61"/>
	<path class="st1" d="M1288.35,896.6c-3.91,12.41-4.33,21.65-1.73,37.17c1.11,11.47,4.48,19.15,9.82,31.01
		c5.63,12.62,9.14,17.08,15.41,17.33c16.21,2.25,27.86,0.62,44.49-3.27c13.79-1.15,21.26-1.6,32.36-5.78
		c26.38-2.59,41.21-2.21,65.58-1.73c30.54-3.44,49.44-6.14,76.27-15.6"/>
	<path class="st1" d="M1181.63,940.04c10.46-5.11,17.28-6.85,28.91-5.3c7,1.62,13.01,0.06,24.65-4.04l10.03-6.22"/>
	<path class="st1" d="M1160.19,897.83c20.05,9.15,34.5,13.37,60.17,15.91c12.92-0.66,23.08-1.88,43.53-8.86l21.31-9.4"/>
	<path class="st1" d="M1285.89,906.41c10.34-3.96,17.23-6.79,25.36-11.42"/>
	<path class="st1" d="M1314.65,982.5c17.18,5.04,30.54,5.45,56.72,3.47c17.15-1.26,27.73-2.13,43.92-1.93
		c12.81-0.65,21.85-2.74,35.44-6.55c12.94-3.22,20.45-3.24,33.13-3.66c3.76,0.04,7.23,2.45,13.1,6.36"/>
	<path class="st1" d="M1456.31,1021.6c15.09-1.4,24.16-0.29,36.69,0.29c8.17,2.16,12.05,5.3,19.94,7.51
		c8.54,2.24,18.03,3.48,25.76,3.81"/>
	<path class="st1" d="M1550.5,1034.89c-0.04-7.18-0.51-10.89-3.47-13.58c-4.08-2.31-6.94-2.93-11.7-4.19
		c-3.7-0.1-5.32,1.79-5.06,9.53c3.73,4.42,6.21,5.82,10.55,7.37C1544.59,1035,1546.91,1035.5,1550.5,1034.89z"/>
	<path class="st1" d="M1480,1037.06c13.05,1.21,21.95,3.52,32.94,8.81c7.4,2.54,12.5,3.22,20.51,4.04l18.2,4.19"/>
	<path class="st1" d="M1549.92,1053.53c0,0-3.03-3.03-3.9-6.65c0,0-0.29-3.03,2.02-3.32c2.73-0.19,4.23-0.19,6.5,0
		c1,2.52,1.85,4.11,1.59,6.93"/>
	<path class="st1" d="M1542.84,1057.28c-0.55-2.15-1.07-3.62-0.88-5.41"/>
	<line class="st1" x1="695.88" y1="1002.53" x2="955.39" y2="1002.53"/>
	<line class="st1" x1="1867.87" y1="1010.44" x2="1546.78" y2="1009.7"/>
	<path class="st1" d="M978.31,1009.2c-0.74,6.3-0.05,10.66,2.59,15.58c3.1,2.28,5.29,3.32,9.39,2.46c9.33-4.12,15.67-7.13,23.4-12.2
		"/>
	<path class="st1" d="M990.49,1011.31c2.18,6.54,2.6,10.58,1.06,15.37"/>
	<path class="st1" d="M994.33,1025.5c3.8-3.87,6.03-7.07,7.7-12.29"/>
	<path class="st1" d="M980.32,1024.27c-4.27,1.41-6.5,3.07-9.97,5.56c-1.98,3.47-1.87,6.06,0.65,10.4c1.11,1.58,2.22,2.64,5.56,4.04
		c3.54-0.3,6.75-1.14,11.85-3.39c6.32-1.86,10.21-3.27,16.76-4.12c6.09-1.05,9.4-2.81,15.6-5.63"/>
	<path class="st1" d="M972.23,1032.36c-0.81,2.9-0.56,5.28,0.14,8.67c2.16,1.32,3.71,1.8,7.01,0.43c0.51-3.89,0.48-6.15-0.65-9.97
		C975.98,1030.87,974.58,1031.26,972.23,1032.36z"/>
	<path class="st1" d="M976.62,1044.28c-0.5,3.14,0.68,4.98,3.94,6.6c9.03,0.11,14.57-0.38,23.11-1.35
		c7.25-2.15,11.47-3.59,17.91-6.16c18.57-5.44,31.88-6.79,50.46-9.92c9.93-2.23,15.29-4.97,20.2-8.4"/>
	<path class="st1" d="M977.96,1044.04c0,2.14,0.23,3.34,0.48,5.49"/>
	<path class="st1" d="M979.81,1050.48c1.7-0.05,3.11-0.22,4.45-0.71c0.94-2.41,0.72-4.07-0.39-6.98"/>
</g>
</svg>
